<?xml version="1.0" encoding="UTF-8"?>
<!DOCTYPE svg PUBLIC "-//W3C//DTD SVG 1.1//EN" "http://www.w3.org/Graphics/SVG/1.1/DTD/svg11.dtd">
<!-- Creator: CorelDRAW X7 -->
<svg xmlns="http://www.w3.org/2000/svg" xml:space="preserve" width="39.0615mm" height="35.6464mm" version="1.1" style="shape-rendering:geometricPrecision; text-rendering:geometricPrecision; image-rendering:optimizeQuality; fill-rule:evenodd; clip-rule:evenodd"
viewBox="0 0 3907 3565"
 xmlns:xlink="http://www.w3.org/1999/xlink">
 <defs>
  <style type="text/css">
   <![CDATA[
    .fil1 {fill:black}
    .fil0 {fill:#CC9933}
   ]]>
  </style>
 </defs>
 <g id="Capa_x0020_1">
  <metadata id="CorelCorpID_0Corel-Layer"/>
  <path class="fil0" d="M1187 3421l1363 0 1176 27c13,0 88,21 88,46 0,25 -75,46 -88,46l-1176 25 -1363 0 -1080 -25c-13,-2 -107,-21 -107,-46 0,-25 94,-46 107,-46l1080 -27z"/>
  <path class="fil0" d="M468 3425l-17 -23c-225,-339 -324,-740 -267,-1145 35,-251 127,-487 272,-694l27 -38c-15,-54 -34,-136 -2,-179l4 -7 6 -4c13,-12 25,-17 40,-19 -134,-209 -140,-495 -98,-731 21,-113 56,-226 115,-324 50,-86 131,-186 217,-234 33,-17 73,-15 102,8 34,27 42,71 21,107 -4,8 -8,14 -12,23 -15,25 -36,46 -53,71 -20,29 -39,62 -54,96 -33,73 -54,148 -67,230 -4,27 -4,56 -6,83 0,40 0,82 2,122 2,18 4,41 6,67 0,-3 0,-3 0,-3 13,-10 25,-23 34,-37 4,-9 8,-17 12,-25 9,-17 15,-36 23,-53 17,-33 50,-52 88,-52 40,0 75,27 84,67 6,25 6,50 4,75 -9,50 -31,96 -61,138 -8,15 -19,27 -29,40 13,10 23,23 29,40 4,8 7,16 7,25 0,6 0,12 0,16l-5 34c0,4 0,8 -2,15 -2,6 -4,14 -6,23 253,-178 548,-287 855,-322 4,-25 14,-46 27,-69 21,-36 63,-53 102,-40 38,10 67,44 69,84 2,4 2,8 2,12 30,-2 59,0 88,0 11,-25 19,-50 27,-77 11,-32 21,-65 28,-96 18,-92 25,-184 20,-278 -4,-42 -8,-84 -20,-126 -9,-31 -19,-62 -26,-94 -2,-8 -4,-19 -4,-27 -6,-42 15,-79 53,-96 37,-17 81,-6 108,23 71,79 115,219 132,322 21,129 17,263 -6,391 -7,29 -11,60 -19,90 614,114 1153,522 1388,1107 89,222 129,462 112,702l-2 51c0,2 0,2 0,2 9,25 13,48 17,73 8,65 0,92 -8,144 0,2 2,4 2,4 37,21 69,52 77,96 11,53 -12,107 -42,151 -25,33 -67,77 -104,96 -34,17 -78,27 -119,31l-5 7c-14,27 -29,56 -46,83l88 11 -127 52 -9 10 -14 -2 -63 25c-71,28 -274,11 -353,-2 -46,-6 -92,-14 -140,-25l81 86 -278 -130c-8,0 -18,0 -25,0 -23,2 -44,2 -64,2 -707,15 -1344,140 -2216,17l0 0zm82 -380c21,-71 39,-124 79,-184 2,-7 4,-13 8,-17l155 -320c2,-33 2,-69 -2,-104 -31,0 -59,4 -92,4 -54,2 -98,-8 -144,-36 -36,-20 -50,-39 -67,-75 0,0 0,-2 0,-2 -2,-2 -4,-4 -6,-4 -11,-6 -21,-13 -32,-19 -35,255 0,518 101,757zm-11 -1089c2,-2 4,-4 6,-6 28,-21 74,-61 109,-97 -19,-14 -35,-27 -48,-41 -25,46 -48,94 -67,144zm470 -617c53,30 107,59 136,115 7,17 15,32 21,48 34,2 78,0 105,-4 2,-4 6,-6 8,-10 50,-53 117,-67 184,-84 46,-12 94,-25 130,-56 46,-40 69,-76 81,-136 2,-11 2,-21 4,-34 0,-4 0,-8 2,-12l9 -38c2,-6 4,-10 6,-17 4,-8 8,-14 13,-23 14,-16 33,-29 52,-33 -2,-8 -4,-17 -7,-25 -269,38 -528,144 -744,309l0 0zm1250 -299c-54,155 -134,303 -242,418 27,2 52,11 69,32 27,33 23,73 8,108 -17,42 -44,84 -67,122 -67,100 -123,204 -234,265 -40,21 -81,34 -127,36 -13,0 -27,0 -42,-3 -4,0 -11,0 -15,0 -31,28 -2,44 19,53l84 35c52,23 129,98 142,163 31,-35 63,-65 100,-98 25,-21 -48,-25 -48,-50 0,-31 79,-69 102,-80 0,0 3,0 3,0l-7 -14 55 -25c18,-9 35,-17 54,-25 6,-2 13,-5 21,-9 60,-50 148,-121 290,-129l69 -59c42,-23 151,-21 222,-14l-21 -21 159 12c50,2 113,23 159,42 37,13 69,31 102,50 44,4 98,48 132,73 16,13 31,25 46,40 6,-4 10,-10 16,-15 26,-25 55,-43 86,-60 4,-2 6,-2 11,-4 -224,-450 -655,-757 -1146,-843l0 0zm1100 2209c-9,0 -17,0 -26,-2 -89,0 -125,19 -202,57l-11 6c15,4 32,11 50,15 42,12 80,21 124,25l6 -11c21,-29 40,-58 59,-90l0 0z"/>
  <path class="fil1" d="M2034 863c-40,-2 -82,-2 -122,-2 2,10 2,21 2,31 3,13 3,25 5,36 2,10 4,18 8,29 23,-2 46,-2 69,0 6,-17 15,-36 21,-52 6,-13 10,-28 17,-42l0 0zm1705 1877c2,12 4,23 4,31 4,23 4,35 -2,71 -2,13 -2,25 -4,40 -31,-55 -61,-94 -94,-142 -19,-32 -69,-82 -115,-153 -73,-117 -27,-199 -100,-305 18,-42 35,-52 41,-107 9,-52 5,-104 19,-156 17,-51 88,-92 69,-115 -8,-15 -54,4 -96,18 -19,7 -23,11 -40,19 -27,13 -50,29 -71,48 -10,11 -19,19 -31,32 -9,12 -15,23 -25,35 -23,-33 -52,-60 -84,-86 -21,-14 -86,-64 -104,-62l-13 -2c-33,-19 -65,-38 -102,-53 -38,-12 -101,-35 -142,-37 27,27 89,44 112,79 -89,-29 -98,-50 -215,-65 -46,-6 -192,-16 -223,3 73,12 135,27 202,54 86,35 36,10 94,29 32,8 65,21 94,27 -37,-27 -129,-69 -177,-77 67,8 131,25 192,48 29,13 52,25 82,40 27,14 43,31 68,46 -8,-38 -41,-53 -54,-86 38,8 126,86 151,119 10,13 14,17 25,25 16,19 21,48 39,63 -6,-63 -27,-75 -50,-119 17,10 25,27 40,40 15,12 29,27 38,41 14,23 41,63 46,105 -21,-13 -19,-32 -34,-44 -6,-6 -4,6 -6,-4 0,-2 -2,-2 -2,-2l23 77c8,2 4,-8 12,-2 15,6 27,31 42,42 -2,-30 -15,-71 -21,-99 -12,-52 -14,-41 15,-92 29,-48 86,-89 134,-112 -7,12 -23,31 -34,50 -31,56 -27,159 -63,196 -12,-12 -18,-35 -29,-48 -8,101 17,117 55,169 48,65 54,97 43,180 -12,-14 -10,-40 -21,-56 -6,44 13,81 32,104l4 -33c13,50 25,73 48,119 21,40 48,61 75,96 28,38 53,63 76,100 10,17 20,30 33,48 10,15 19,38 29,53 -42,4 -73,-4 -106,31l-15 17c0,0 0,0 0,2l8 0c38,-23 78,-36 120,-15 -17,9 -42,15 -49,21 -27,17 -50,38 -12,42 31,-15 61,-25 75,-25 34,-2 67,2 69,35 2,32 -27,59 -37,76l0 -9c0,-2 0,-2 0,-4 0,-2 2,-6 2,-8 2,-11 2,-9 2,-17 -19,0 -36,13 -42,29 -19,42 6,30 23,23 -40,65 -75,53 -107,57 -27,4 -100,23 -96,-46 2,-44 55,-82 103,-107 -30,-4 -42,0 -71,17 -55,35 -42,48 -65,75 -13,-33 8,-60 23,-79 -27,8 -42,37 -57,56 -16,-6 -41,-25 -56,-35 -29,-21 -25,-15 -63,-21 9,-15 25,-19 25,-34 2,-8 -8,-25 -8,-44l-13 17c-6,8 -4,6 -10,13 -21,-5 -31,-23 -40,-38 -8,-13 -10,-25 -12,-40l-5 -10c0,-2 0,-2 0,-4l-4 25c-10,-34 -6,-80 4,-119 7,-19 13,-34 21,-48l21 -34c7,-6 4,-2 9,-6 -11,79 8,129 39,184 34,60 9,92 19,111 6,-19 17,-21 19,-44 8,-46 -17,-88 -31,-124 -36,-85 -9,-133 -21,-175 -34,-6 -71,54 -86,81 -23,42 -33,88 -40,140 -37,21 -39,38 -87,55 -49,14 -107,-5 -122,4 46,40 153,27 165,35 -29,21 -62,11 -87,21 29,25 125,23 148,-2 15,13 29,29 59,38 23,8 56,2 73,17 12,12 29,35 46,45 10,7 19,13 29,19 10,9 17,13 19,25 -50,-8 -65,-18 -105,-37 -19,-7 -31,-15 -46,-23 -23,-13 -33,-25 -46,-15 9,6 19,11 25,21 -48,-2 -81,-8 -129,0 -42,4 -77,21 -113,25 6,-10 0,-4 10,-10 3,-2 9,-5 11,-7 19,-8 60,-21 73,-29 -27,-6 -77,4 -102,8 -48,9 -53,21 -84,36 19,-56 54,-46 69,-71 -33,2 -90,17 -115,31 -35,19 -50,40 -69,73l-8 13c-7,-92 54,-115 71,-140 -38,2 -78,33 -96,54 -42,44 -30,73 -34,119 -12,-52 -37,-85 4,-158 -16,6 -12,4 -27,23 -35,43 -31,62 -37,115 0,2 0,2 0,2 -7,-5 0,4 -7,-7 0,-2 -2,-6 -4,-8 -2,-6 -2,-10 -4,-19 -42,-159 46,-228 65,-259 -17,4 -19,10 -34,19 -48,29 -92,79 -102,140 -6,31 0,67 -2,75 0,0 -2,2 -2,2l-2 6c-5,-27 -17,-46 -17,-83 -2,-44 10,-61 21,-98l-13 10c-21,25 -35,57 -37,92 -7,52 6,71 18,109 -37,-40 -75,-111 -60,-201 17,-117 88,-152 106,-184 -14,11 -39,23 -56,34 -19,12 -31,23 -48,41 -50,55 -57,107 -69,122 0,-67 6,-80 25,-136 -19,12 -42,44 -54,77 -15,46 -11,75 -4,117 -34,-60 -40,-155 2,-228 31,-50 66,-79 104,-113 15,-12 29,-16 38,-33 -30,4 -103,46 -126,61 -79,56 -58,62 -94,100 9,-38 38,-84 59,-107 19,-23 37,-39 60,-54 28,-17 197,-113 201,-127l-50 23c-48,16 -111,33 -157,56 -46,23 -54,31 -88,65 -27,25 -56,50 -71,83 19,-14 59,-60 90,-60 -8,21 -40,42 -56,62 -92,118 -30,232 -27,264 -5,-4 0,0 -7,-6l-16 -23c-7,-11 -13,-21 -19,-34 -11,-25 -19,-42 -27,-71 -15,-61 -11,-127 14,-188 -19,17 -50,81 -52,117l-2 63c-17,-32 -17,-103 -11,-147 11,-69 32,-89 44,-142 -50,27 -150,247 -21,410 61,77 140,136 232,184 11,6 82,46 97,40 -9,-7 -19,-15 -28,-23 -18,-17 -23,-11 -23,-28l0 0c2,0 2,2 2,0 19,9 38,32 55,44 19,15 40,27 58,42 138,88 301,132 462,155 67,10 268,27 322,4 -121,-15 -146,0 -286,-38 -107,-31 -140,-48 -222,-111l11 -6c10,-6 10,-19 12,-33 13,14 19,29 40,37 10,7 56,23 63,11 2,-2 2,-2 2,-2 2,-2 2,-2 2,-4l6 -11c8,-17 21,-33 40,-35 -4,8 -9,12 -4,23 75,-38 121,-65 229,-63 51,0 99,12 147,17 21,2 52,-2 67,4 25,14 29,19 62,21 42,2 90,-9 122,-25 52,-25 192,-176 64,-237 -18,-8 -18,-27 -35,-41 12,-65 23,-82 14,-151 -4,-25 -8,-42 -14,-63 -4,-10 -9,-33 -21,-39 -29,-13 -15,65 -52,111 21,4 31,6 41,-32 0,0 5,-33 11,-14l0 0zm-943 612c-202,-96 -194,-27 -355,-69 -111,-29 -219,-100 -293,-182 32,21 13,48 170,176 140,110 462,56 478,75l0 0zm-432 -1384c23,-6 42,-8 65,-14 8,-2 60,-13 62,-13 -12,-17 -52,-6 -73,-6l61 -17c21,-2 44,-2 67,0 2,-17 4,-33 14,-40 -37,-16 -138,-6 -171,0 -146,30 -222,145 -389,209 -46,17 178,-66 364,-119l0 0zm1279 1123c-13,0 -23,10 -29,25 -9,8 -15,16 -15,25 0,2 0,6 0,8 8,2 29,0 42,-2l4 -10c29,-15 65,-46 69,-63 2,-17 -25,4 -50,12l4 -8 2 -4c-8,4 -19,10 -27,17l0 0zm-1848 -803c-67,19 -108,-60 -108,-127 35,16 110,90 108,127zm968 263c-4,-12 17,-23 25,-27l17 -10c4,-2 19,-6 25,-6 -9,12 -9,6 -34,23l-33 20zm-633 126c-5,-21 0,-34 14,-50 0,-2 4,-7 4,-7 11,-8 -4,0 11,-6 0,21 -8,32 -19,50 -6,17 -2,9 -10,13zm-71 10c-2,-12 2,-29 6,-41 8,-19 8,-26 27,-30 -4,27 -15,63 -33,71zm280 -179c6,-40 64,-63 98,-76l15 -4c-5,6 0,2 -5,6l-6 5c-10,6 -23,10 -46,29l-40 27c-10,8 -6,6 -16,13l0 0zm763 -270l-5 -4c-27,-38 -35,-46 -48,-94 0,-2 0,-7 -2,-9 13,9 2,0 13,11 4,4 6,6 10,12 17,25 36,55 32,84l0 0zm361 765c13,-86 -29,-75 -8,-115 35,17 42,92 8,115zm-920 -832c-2,15 5,8 -39,19 -19,4 -38,6 -55,6 -31,4 -96,19 -98,19 25,-15 48,-33 82,-44 25,-8 88,-23 110,0l0 0zm-618 454c0,-53 19,-90 56,-117 11,-11 21,-11 30,-17 20,29 -49,125 -86,134zm1346 -113l-4 2c-9,4 -34,-71 -67,-96 -50,-36 -82,-23 -130,-9 19,-35 86,-58 134,-25 44,32 40,80 58,113l9 15 0 0zm-688 14c-54,48 -163,90 -196,126 2,-13 25,-46 33,-57 13,-18 27,-27 46,-37 13,-7 113,-42 117,-32zm-547 -94c23,-81 154,-142 209,-152 -7,6 -15,10 -23,16 -11,7 -19,15 -28,21 -18,13 -33,25 -50,44 -27,30 -62,63 -108,71zm98 105l-4 -6c0,-5 73,-107 121,-138 25,-15 94,-44 127,-57 15,-4 28,-12 42,-14 -33,23 -104,50 -146,100 -29,35 -38,29 -71,54l-69 59c0,0 0,0 0,2l0 0zm721 393c23,-44 109,-71 157,-80 46,-8 83,4 144,-16 17,-7 27,-15 40,-17 -7,12 -55,40 -69,46 -94,42 -111,19 -189,33 -52,11 -62,25 -83,34zm21 -105c21,-37 115,-56 161,-56 73,-2 123,-6 171,-44 -19,27 -98,75 -142,86 -40,8 -88,-7 -148,4 -15,2 -32,8 -42,10l0 0zm136 -225c2,6 -57,37 -69,43 -71,28 -140,5 -220,44 -10,7 -25,17 -35,17 14,-8 42,-59 136,-84 58,-14 140,9 183,-23l5 3 0 0zm-270 209c21,-49 92,-99 148,-111 34,-7 69,-2 107,-7 40,-2 67,-10 102,-16 -29,35 -140,58 -179,62 -34,5 -65,11 -94,23 -15,7 -32,13 -42,21l-27 21c-2,0 -5,2 -7,2 -6,5 2,0 -8,5l0 0zm520 -243c-23,-6 -23,-4 -41,-17 -13,-6 -23,-12 -36,-14 2,0 4,-2 4,-4 2,-5 -4,-15 -14,-21 -11,-7 -21,-7 -25,0 0,2 0,6 4,10 0,-2 0,-4 4,-6 2,-2 8,0 10,6 2,4 0,8 -4,11l0 0 0 0c4,2 6,2 9,4 -46,-2 -51,-13 -69,-40 8,46 37,38 60,56 -69,9 -79,-43 -88,-64 -6,-15 -12,-17 -23,-30 42,7 30,7 69,-2 59,-14 78,27 101,63l39 48 0 0zm-307 -343c-8,-6 -8,-8 -23,-12 11,17 21,14 25,62l17 -12c0,0 0,0 2,-2 -8,46 -2,71 -21,75 -6,-33 13,-42 -6,-73 -6,-13 -31,-36 -48,-44 50,77 19,75 31,115 -29,-4 -71,-23 -90,-40 -12,-10 -35,-56 -35,-85l6 6c11,12 13,19 29,25 -8,-38 -23,-52 -14,-105l14 -2c0,-12 -6,-27 -10,-39 -8,-25 -13,-17 -21,-36 40,21 65,29 98,65 17,17 23,19 34,44 6,12 16,40 12,58l0 0zm-395 -223c-29,0 -60,-2 -88,8 -16,6 -12,13 -33,17l-115 35c-15,7 -63,30 -71,30 75,-19 171,-34 259,-19 -6,6 0,2 -12,6 -2,0 -11,2 -15,2 -6,2 -15,2 -25,4 -109,15 -226,55 -326,101 -88,41 -157,85 -232,150l-69 63c8,-15 23,-38 33,-50 46,-59 76,-84 128,-130 29,-25 65,-48 96,-71 10,-4 13,-4 25,-13 13,-8 15,-8 27,-14 17,-6 36,-19 55,-25l-5 -13c15,-8 30,-17 51,-25 64,-23 110,-35 167,-54 -32,-4 -65,4 -94,6 18,-17 83,-33 115,-38 21,-2 46,-4 69,-2 33,2 58,-2 60,32l0 0zm489 248c-10,-8 -19,-39 -25,-52 -100,-228 -238,-171 -376,-238 6,23 58,54 81,65 0,0 -2,-2 -2,0 -4,6 -4,-2 -21,6 -14,6 7,0 -4,2 -8,-10 -27,-23 -41,-29 8,44 14,33 23,117 -13,-13 -17,-34 -21,-50l-9 -17c-4,46 4,104 19,148l13 36c2,6 0,-2 2,8 -7,-6 0,0 -7,-6l-14 -17c-4,-10 -9,-21 -13,-29 0,35 11,44 23,63 30,46 4,12 38,50 -21,0 -31,-17 -42,-25 2,25 44,67 71,85 40,25 92,36 134,30 -2,2 -2,2 -2,2 -2,6 -15,10 -21,12 -54,21 -103,15 -155,-12 -27,-13 -25,-17 -42,-36 11,4 28,25 63,25 -21,-12 -40,-18 -54,-35 -52,-57 -65,-119 -63,-203 2,-56 15,-115 2,-169 -2,-17 -35,-101 6,-92 5,2 19,14 28,19 119,71 280,33 378,200 17,27 48,94 31,142l0 0zm-1120 224c2,13 -15,21 -15,-2 0,0 9,0 9,0 12,2 2,0 6,2zm-109 -1168c5,-53 0,-105 -4,-159 -2,-15 -10,-25 -25,-31 -12,-5 -27,0 -35,12 -3,2 -5,6 -7,11 -2,2 -2,4 -2,6l-8 37c-2,0 -2,3 -2,5 -2,14 -2,27 -4,39 -17,73 -46,119 -101,168 -44,39 -98,56 -154,68 -55,15 -115,28 -155,69 -6,7 -15,15 -21,23 -44,11 -148,13 -182,7 -4,-27 -19,-57 -29,-78 -23,-43 -73,-69 -117,-94 -44,-25 -88,-50 -115,-94 -33,-52 -46,-98 -36,-161 0,-12 5,-23 9,-35 0,0 0,-2 0,-4l2 -32c2,-2 2,-4 0,-6 0,-4 0,-8 -2,-10 -4,-13 -15,-19 -27,-19 -15,2 -25,8 -32,19 -21,43 -39,85 -52,129 -6,-10 -10,-23 -13,-40 -2,-41 28,-83 53,-119 25,-35 54,-69 77,-104 25,-36 44,-73 50,-113 4,-19 2,-36 -2,-54 -2,-11 -12,-19 -27,-19 -13,-2 -25,6 -31,19 -9,16 -15,31 -23,48 -5,10 -9,21 -15,31 -10,19 -27,36 -44,52 -15,15 -27,23 -44,36 -12,10 -27,25 -39,40 -15,-57 -21,-149 -23,-182 -3,-42 -5,-84 -3,-124 0,-31 3,-62 7,-94 12,-83 35,-163 71,-244 16,-38 35,-71 60,-107 17,-23 36,-44 51,-69 4,-6 8,-10 10,-16 6,-13 4,-26 -6,-34 -9,-6 -23,-8 -36,-2 -77,42 -152,140 -194,211 -57,96 -90,201 -109,305 -46,259 -31,583 161,778 21,21 44,41 69,60l-2 0c-31,-6 -71,-16 -98,-27 -17,-6 -32,-12 -44,-19 -15,-6 -36,-16 -48,-8 -25,38 39,228 56,274 40,115 65,121 151,192 -28,46 -113,119 -153,150 -79,65 -150,44 -125,159 14,65 -4,69 52,101 48,25 21,52 73,81 98,57 151,9 259,29 57,291 -111,431 -115,590 -6,194 59,378 180,497l113 0c-57,-77 -92,-167 -115,-221 -21,-50 -34,-113 -38,-201 -8,-263 76,-387 113,-631 32,6 52,56 67,86 6,18 13,35 21,54 13,23 17,38 35,48l-8 -176c11,-8 21,-6 34,-6 -9,-6 -28,-10 -40,-17l-34 -18c161,-2 322,-124 329,-293 -78,148 -128,228 -322,232 -84,2 -197,-17 -270,-8 -46,4 -65,27 -121,18 -34,-6 -80,-33 -84,-54 61,6 124,11 180,0 27,-4 46,-17 65,-27 35,-15 39,-6 79,-11 -12,-14 -50,-27 -65,-35 -27,31 -92,75 -129,21 -13,23 -40,44 -73,33 -23,-8 -44,-25 -55,-46l-46 -10 0 0c7,10 11,23 13,44 -29,0 -40,-19 -46,-40l17 -21 58 15 0 0 2 0 0 0 0 0c21,6 36,12 61,12 0,0 -2,-2 -4,-2l-25 -27 48 -4c10,-23 8,-42 -15,-52 -29,-15 -69,29 -115,21 -29,-5 -37,-11 -44,-32 2,-2 4,-2 4,-2l15 -6c21,-9 31,-9 52,-4 115,21 88,-19 159,87 25,-27 50,-43 -2,-73 0,-4 2,13 -17,0 -8,-4 -14,-14 -27,-23 -21,-14 -50,-19 -73,-29 54,-48 56,-33 111,-104 42,-55 65,-61 79,-141 13,-56 34,-58 61,-85 19,-17 33,-34 44,-52 -21,-5 -90,52 -111,71 -8,8 -13,14 -21,29 -2,4 -4,10 -6,15l-13 14c-54,-33 -96,-81 -108,-155 -13,-71 -46,-131 -59,-200 138,46 186,33 259,134 38,48 19,77 63,83 8,-17 12,-33 14,-50 3,2 3,4 3,6l18 -102c-25,-25 -64,-50 -87,-67 -53,-36 -107,-71 -151,-117 -184,-184 -196,-500 -152,-748 18,-98 50,-201 104,-291 29,-50 77,-117 130,-163 -9,13 -19,25 -28,38 -27,37 -48,75 -64,115 -38,83 -61,167 -76,255 -12,88 -10,399 46,464 3,2 5,2 9,2 4,0 6,-2 10,-4 13,-19 27,-38 44,-55 6,-6 13,-12 19,-18 19,-13 31,-26 48,-40 42,-40 54,-63 69,-96 -13,69 -82,136 -119,192 -32,46 -63,92 -59,144 4,57 30,71 67,105 2,2 9,4 13,2 4,-2 6,-7 8,-11 2,-37 13,-71 25,-106 0,0 0,0 0,0 -8,71 4,125 42,184 29,48 77,77 127,106 36,21 86,44 103,80 6,12 21,41 27,67 -44,6 -138,37 -119,58 -13,33 90,-19 2,46 31,0 42,-6 79,-4 67,4 138,-38 199,-29 0,0 0,2 0,2l29 6c4,-29 50,-75 63,-90 31,-33 92,-46 136,-56 62,-17 121,-34 171,-80 61,-54 96,-108 113,-190 0,0 0,0 0,0 2,42 -2,86 -15,127 0,5 0,9 5,13 4,4 10,4 14,2 50,-27 84,-35 109,-94 25,-56 8,-119 -4,-178 -19,-75 -63,-171 -50,-250 2,41 6,71 33,127 13,23 21,40 36,59 4,8 8,18 12,27 8,23 17,50 25,73 0,4 4,8 6,8 5,2 9,2 11,0 83,-54 205,-397 226,-499 18,-100 27,-201 20,-305 -2,-50 -10,-96 -23,-145 -4,-16 -8,-33 -14,-52 37,67 60,157 71,220 21,117 15,240 -4,355 -50,288 -184,631 -443,780 -32,18 -63,33 -96,46 -15,4 -30,10 -42,16 -21,7 -42,15 -61,21 -40,13 -115,36 -142,65 -8,8 -15,19 -21,27 -4,6 -15,19 -19,23 -19,15 -56,8 -77,-2 -13,-6 -79,-71 -73,-21 0,6 2,13 4,17 6,17 17,31 29,44 40,33 115,50 155,19 10,-9 21,-23 27,-34 4,-4 6,-8 11,-12 -11,20 -28,23 -9,50 19,-11 29,-23 50,-38 42,-33 73,-58 99,-79 54,-19 106,-38 158,-61 46,-4 109,-4 201,0 -19,77 -81,142 -125,199 -51,62 -71,115 -168,142 -56,16 -125,-11 -173,19l40 4c-11,10 -28,19 -40,25 -17,8 -27,19 -40,25 11,25 11,-6 9,40 -11,156 23,292 142,399 37,33 90,83 79,85 -6,0 2,19 -81,-43 -17,-13 -38,-30 -55,-44 -8,-7 -35,-50 -46,-50l-4 6c149,207 163,200 215,150 46,-42 74,-69 69,-73 -142,-83 -357,-397 -215,-487 27,-17 96,17 182,-31 98,-55 150,-153 213,-247 136,-207 48,-161 -54,-173 0,0 -27,0 -61,2 241,-167 366,-498 416,-782 21,-119 25,-246 6,-370 -16,-92 -56,-221 -119,-292 -10,-11 -25,-15 -37,-9 -13,7 -21,19 -19,34 2,8 2,14 4,23 6,31 17,60 25,92 13,46 19,90 21,136 6,100 0,196 -21,292 -6,36 -17,71 -29,105 -15,46 -32,92 -50,138 -15,35 -57,135 -94,192 -7,-21 -15,-40 -25,-55 -11,-18 -21,-33 -30,-54 -12,-23 -23,-46 -27,-71 -2,-12 -2,-25 -2,-40 -2,-18 -2,-39 -4,-60 -2,-15 -13,-27 -27,-32 -13,-4 -28,3 -36,15 -10,19 -17,38 -21,59 -10,46 -4,94 6,140 13,48 30,94 40,140 13,46 27,102 9,148 -9,19 -17,29 -28,40l0 0zm-1080 2098c0,-173 -59,-136 -88,-259 -19,-86 -4,-188 38,-274 -4,31 -38,31 -84,192 -40,143 142,322 134,341l0 0zm468 2c0,-4 -63,-75 -100,-165 -30,-75 108,-180 198,-263 42,-38 73,-101 73,-101 -14,251 -311,209 -171,529l0 0zm44 -853c-25,5 -25,-27 -19,-56 36,4 34,38 19,56zm81 -35c-8,-6 -8,0 -14,-23 -4,-13 -7,-21 -9,-31 -6,-34 -4,-51 2,-84 38,19 55,113 21,138l0 0zm103 -105c-32,-18 -46,-140 -21,-183 25,25 58,148 21,183zm-719 -355l-27 0 12 23c-23,-23 -27,-23 -54,-42l98 -52c38,-19 27,-2 52,-8 19,-7 30,-23 55,-30 -9,15 -53,59 -65,63 -2,0 -57,-2 -71,46zm593 750c-54,-4 -73,-85 -58,-146 38,0 69,90 58,146zm151 -75c-11,9 -13,13 -34,11 -18,-19 -64,-126 -39,-163 19,14 33,46 46,71 12,21 33,52 27,81zm-159 -836c-42,13 -42,2 -42,2 -2,-8 -14,-14 -29,-14 -19,0 -33,6 -33,14 -3,11 10,17 29,19 6,0 14,-2 21,-4 -15,19 -17,31 -55,27 -71,-8 -4,-35 -131,8 8,-14 87,-87 108,-100 23,-15 42,-31 74,-6 14,10 14,14 27,27 14,10 21,13 31,27l0 0zm0 -88c-81,-20 -69,-83 -234,11 -23,-27 -65,-11 -100,-2 -76,17 -67,31 -101,37 15,-60 13,-117 71,-121 -2,21 -8,27 -14,44l202 -40c95,-12 136,25 176,71l0 0zm621 -204c-29,29 -98,14 -176,131l-46 53c-6,6 0,2 -10,8l-155 42 75 -86c34,-36 21,-65 65,-98 57,-44 176,-63 230,-55l13 3c0,0 2,2 4,2l0 0zm-1100 104c-77,-148 9,-152 -219,-232 21,52 98,63 132,128 -7,16 -11,10 -17,18 15,13 17,15 29,25 32,23 11,30 75,61zm2759 1561c-21,42 -46,82 -71,122l-67 -9c-31,-4 -62,-6 -94,-8 29,-42 57,-86 82,-132 14,2 31,4 46,6 12,0 39,-2 52,0 21,13 33,19 52,21l0 0zm-42 -276l0 -2 2 -6 3 -2 0 0 0 -4 2 -4 0 0 2 -5 0 -4 2 -4 2 -6 0 -4 2 -5 0 0 2 -4 0 -6 2 -2 0 0 0 -2 2 -9 2 -4 0 -4 2 -4 0 -4 0 0 3 -4 0 -5 2 -4 0 0 2 -6 0 -4 0 0 2 -4 0 -5 2 -4 0 0 2 -10 0 -2 0 -2 2 -9 0 0 0 -2 0 0 2 -8 2 -4 0 0 0 -5 2 -6 0 -2 0 0 0 -2 2 -8 0 -3 0 -2 3 -4 0 -2c12,15 25,31 35,50 11,15 21,30 31,44 -23,4 -43,13 -69,40l-14 17 -2 0c0,2 0,2 -2,4l-30 37 0 0zm71 -357c17,-213 -12,-420 -81,-610 19,-40 79,-71 71,-124 -2,-8 -6,-14 -10,-20 -26,-38 -82,-19 -124,-5 -217,-453 -656,-800 -1201,-894 8,-31 16,-63 23,-92 892,157 1523,913 1471,1749 -2,0 -2,0 -4,-2 -13,-4 -28,-6 -42,0 -29,11 -34,44 -40,73 -14,-19 -31,-39 -48,-58 -4,-6 -8,-13 -15,-17l0 0zm-1864 -1762c-334,38 -641,165 -890,358 2,27 12,52 31,81 7,11 15,19 23,29 232,-196 521,-326 834,-370 -4,-33 -4,-64 2,-98l0 0zm-1241 723c-136,195 -228,423 -264,669 -56,397 46,784 260,1104l94 14c-59,-102 -94,-280 -101,-309l0 -4c-102,-245 -144,-514 -104,-792 4,-34 10,-67 17,-99 -5,-33 -3,-66 20,-94 3,-2 3,-4 5,-6 31,-111 75,-217 131,-315 -8,-19 -16,-38 -23,-57 -12,-38 -25,-73 -35,-111l0 0z"/>
 </g>
</svg>
