<?xml version="1.0" encoding="UTF-8"?>
<!DOCTYPE svg PUBLIC "-//W3C//DTD SVG 1.1//EN" "http://www.w3.org/Graphics/SVG/1.1/DTD/svg11.dtd">
<!-- Creator: CorelDRAW X7 -->
<svg xmlns="http://www.w3.org/2000/svg" xml:space="preserve" width="32.5429mm" height="8.8089mm" version="1.1" style="shape-rendering:geometricPrecision; text-rendering:geometricPrecision; image-rendering:optimizeQuality; fill-rule:evenodd; clip-rule:evenodd"
viewBox="0 0 9156 2478"
 xmlns:xlink="http://www.w3.org/1999/xlink">
 <defs>
  <style type="text/css">
   <![CDATA[
    .fil0 {fill:#CC9933}
   ]]>
  </style>
 </defs>
 <g id="Capa_x0020_1">
  <metadata id="CorelCorpID_0Corel-Layer"/>
  <path class="fil0" d="M3370 1960c-55,-4 -118,-6 -176,-5l-82 7c-65,9 -137,20 -199,41l-44 16c-75,29 -174,78 -247,120 -13,7 -25,15 -39,21 -27,12 -54,31 -80,45 -47,24 -114,65 -158,86l-20 10 -61 31c-94,52 -254,112 -355,132 -176,35 -412,12 -530,-139 -50,-62 -86,-129 -83,-229 2,-74 24,-125 60,-173 7,-11 11,-16 21,-24 16,-14 31,-28 52,-38 76,-36 175,-63 270,-64l5 -1c83,-1 164,17 225,64 32,24 49,39 73,72 35,50 51,129 16,192 -14,24 -23,36 -41,54 -41,43 -107,58 -169,51 -77,-8 -149,-50 -157,-117 -2,-8 -3,-16 -3,-24 4,-140 286,-150 304,-8 28,-63 -29,-122 -80,-155 -101,-66 -276,-40 -383,2 -69,27 -113,78 -115,165 -2,71 24,128 63,175l29 28c136,115 338,115 503,66 32,-10 58,-19 88,-30 133,-50 308,-212 395,-332 84,-115 149,9 201,8 53,-1 106,-40 151,-68l77 -53c114,-86 227,-13 253,-13 6,0 19,-2 30,-2l64 -4c175,-3 235,14 378,52 12,3 102,-5 129,-5 67,-1 136,-4 203,-1 83,4 170,14 249,28 53,9 165,68 164,132 -3,10 -1,10 -9,15 -42,26 -188,9 -258,19 -11,1 -23,0 -34,1l-32 3c-7,2 -24,5 -32,5 4,8 34,27 44,34l43 34c75,56 208,173 298,172 45,-1 68,-5 109,-29 89,-50 46,-110 6,-110 -15,0 -26,26 -46,41 -79,61 -140,-18 -84,-73 31,-30 91,-55 135,-55 37,-1 62,16 87,41 25,-25 50,-42 87,-41 44,0 104,25 135,55 56,55 -5,134 -84,73 -20,-15 -31,-41 -46,-41 -40,0 -83,60 6,110 41,24 64,28 110,29 89,1 222,-116 297,-172l43 -34c10,-7 40,-26 44,-34 -8,0 -25,-3 -32,-5l-32 -3c-11,-1 -23,0 -34,-1 -70,-10 -216,7 -258,-19 -8,-5 -6,-5 -9,-15 -1,-64 111,-123 164,-132 79,-14 166,-24 249,-28 67,-3 136,0 203,1 27,0 117,8 129,5 143,-38 204,-55 378,-52l64 4c11,0 24,2 30,2 26,0 139,-73 253,13l77 53c45,28 98,67 152,68 51,1 117,-123 200,-8 87,120 262,282 395,332 30,11 56,20 88,30 166,49 367,49 503,-66l29 -28c39,-47 65,-104 63,-175 -2,-87 -46,-138 -115,-165 -107,-42 -282,-68 -383,-2 -51,33 -108,92 -80,155 18,-142 300,-132 304,8 0,8 -1,16 -3,24 -8,67 -80,109 -157,117 -62,7 -128,-8 -169,-51 -18,-18 -27,-30 -41,-54 -35,-63 -19,-142 16,-192 24,-33 41,-48 73,-72 61,-47 142,-65 225,-64l5 1c95,1 194,28 270,64 22,10 36,24 53,38 9,8 13,13 20,24 36,48 58,99 60,173 3,100 -33,167 -82,229 -119,151 -355,174 -531,139 -101,-20 -261,-80 -355,-132l-61 -31 -19 -10c-45,-21 -112,-62 -159,-86 -26,-14 -53,-33 -79,-45 -15,-6 -27,-14 -40,-21 -73,-42 -172,-91 -247,-120l-44 -16c-62,-21 -134,-32 -198,-41l-83 -7c-58,-1 -121,1 -176,5 3,2 0,1 5,3 91,3 133,12 182,22 125,25 217,55 311,113 25,15 73,53 113,98 52,59 89,132 44,185 -45,52 -90,39 -92,-42 -2,-69 0,-61 -37,-114 -153,-152 -574,-211 -758,-214 -32,0 -151,67 -172,72l15 7c106,40 273,67 277,213 4,161 -293,215 -371,74 -15,-25 -17,-51 -18,-82 -2,-56 61,-87 101,-58 26,19 26,60 12,86 -5,10 -16,16 -18,27 46,28 103,22 147,0 181,-92 -138,-173 -210,-197 -12,-4 -27,-12 -38,-6 -33,18 -86,61 -116,84l-170 127c-87,64 -205,115 -313,66 -39,-18 -75,-42 -102,-76 -28,34 -62,57 -102,76 -108,49 -226,-2 -313,-66l-170 -127c-30,-23 -83,-66 -116,-84 -11,-6 -26,2 -38,6 -72,24 -391,105 -210,197 44,22 101,28 147,0 -2,-11 -13,-17 -18,-27 -14,-26 -14,-67 12,-86 40,-29 103,2 101,58 -1,31 -3,57 -18,82 -78,141 -375,87 -371,-74 4,-146 171,-173 277,-213l15 -7c-21,-5 -140,-72 -172,-72 -184,3 -604,62 -758,214 -37,53 -35,45 -37,114 -2,81 -47,94 -92,42 -45,-53 -8,-126 44,-185 40,-45 88,-83 114,-98 93,-58 185,-88 310,-113 49,-10 91,-19 182,-22 5,-2 2,-1 5,-3zm-2871 -280c213,-4 406,-68 540,-240 120,-155 204,-329 243,-521 27,-127 57,-300 40,-429 -108,-741 -973,-524 -1061,-120 -38,175 25,384 213,245 -139,-245 135,-527 400,-475 410,81 257,800 99,1060 -94,149 -227,286 -411,304l-20 -24 285 -1107c-94,2 -181,-8 -210,110l-239 956c2,61 -154,-31 -148,-251 2,-87 28,-165 75,-234 -126,32 -273,95 -299,231 -47,251 191,501 493,495zm4360 -504c-27,92 -44,146 -12,240 17,51 49,116 111,114 32,-127 111,-505 176,-590 104,-137 197,-57 174,56 -24,116 -98,264 -43,405 32,63 84,139 164,108 112,-44 156,-152 177,-104 50,110 190,109 291,82 219,-61 282,-250 305,-183 87,250 376,236 579,-34 33,-44 46,69 49,78 101,275 299,-27 332,-20 30,6 30,127 123,124 33,-127 116,-505 181,-590 113,-149 191,-32 173,34l-81 326c-4,73 36,219 125,216 33,-127 115,-504 180,-590 97,-126 193,-69 173,55 -20,123 -78,317 -32,436 70,179 249,35 326,-55 38,-44 13,73 177,109 307,68 298,-146 342,-157 134,-33 311,-257 307,-319 -1,-8 -3,-17 -7,-24 -30,42 -223,274 -261,229 -15,-18 67,-295 -24,-395 -54,-60 -171,-89 -248,-86 -236,8 -298,377 -281,546 1,16 -89,117 -152,79 -46,-27 -35,-85 -21,-127 31,-100 74,-262 41,-365 -45,-128 -128,-127 -248,-102 -107,22 -138,128 -163,83 -74,-134 -193,-87 -287,-1l-31 -19 16 -55c-247,8 -176,-1 -299,419 -48,164 -7,125 -78,188 -64,56 -148,21 -124,-82l277 -1048c-78,3 -169,-8 -192,78l-236 881c-70,93 -226,255 -351,255 -120,-1 -145,-200 -92,-184 267,82 477,-353 255,-455 -133,-61 -291,8 -377,135 -90,133 -85,332 -94,342 -5,5 -133,149 -128,77 16,-263 -325,-283 -212,-441 73,-102 217,9 118,77 186,149 213,-111 64,-170 -106,-43 -287,-18 -344,80 -113,190 109,312 157,372 90,112 -19,273 -133,129 -53,-67 -30,-78 -38,-117l-2 0c-43,49 -139,186 -215,142 -46,-27 -37,-85 -23,-129 33,-99 80,-261 54,-364 -34,-99 -119,-137 -208,-103 -69,27 -93,89 -120,72l7 -76c-243,8 -177,-7 -297,418zm1699 -159c-51,45 -171,72 -172,31 -2,-75 38,-139 91,-191 99,-83 224,34 81,160zm2178 42c-25,12 -227,-120 -167,-225 27,-97 131,-138 168,-97 41,46 27,308 -1,322zm-108 243c-58,18 -113,-17 -124,-85l12 -131c24,-8 42,53 169,108 38,17 -40,99 -57,108zm-4766 15c-161,127 -437,220 -574,5 -94,-213 28,-429 249,-479l19 31c-67,74 -4,178 102,174 164,-5 130,-203 65,-261 -110,-98 -294,-5 -386,75 -153,134 -219,426 -51,580 264,243 639,-43 836,-237l199 -198c5,0 10,2 13,6 103,110 160,394 187,551l153 -29c82,-262 124,-534 198,-797l229 -720c-150,4 -278,26 -434,8 -138,-16 -250,-40 -392,-16 -627,105 -363,754 51,528 205,-112 182,-342 36,-337 -135,4 -120,180 12,165 49,-5 4,95 -98,135 -329,132 -419,-345 -13,-393 103,-12 510,49 527,83 26,53 -409,565 -473,648 -6,7 -16,10 -24,4 -113,-67 -368,-101 -372,76 99,-72 320,-40 307,7 -17,63 -300,322 -366,391zm545 -381c-6,-7 -7,-18 -1,-25l408 -511 33 18 -266 757 -36 1c-37,-82 -73,-175 -138,-240zm-2930 386c25,-9 43,53 170,108 38,17 -40,99 -57,107 -58,19 -113,-16 -124,-84l11 -131zm-181 91c11,124 51,189 172,216 307,68 299,-146 343,-157 69,-17 123,-81 128,-34 7,69 44,191 127,188 32,-126 111,-504 177,-589 103,-136 196,-58 173,56 -24,116 -98,264 -43,405 32,63 84,139 165,108 82,-32 249,-182 234,-284 -72,69 -150,172 -217,133 -47,-27 -38,-85 -24,-129 33,-99 80,-261 54,-364 -34,-99 -119,-137 -208,-103 -69,26 -93,88 -120,72l7 -76c-242,8 -177,-10 -303,437 -5,19 -130,112 -115,49 20,-90 51,-301 -20,-378 -55,-60 -172,-89 -248,-87 -235,8 -297,377 -282,537zm402 -441c42,46 28,309 0,323 -26,12 -227,-120 -168,-225 34,-108 136,-133 168,-98zm3657 1028l-74 44c-16,11 -21,2 -55,-5 -45,-9 -99,-19 -147,-19 -12,0 -15,0 -21,-6 25,1 48,-5 71,-6l109 -7c16,1 21,-2 37,-2l80 1zm-1554 0l74 44c16,11 21,2 55,-5 45,-9 99,-19 147,-19 12,0 15,0 21,-6 -25,1 -48,-5 -71,-6l-109 -7c-16,1 -21,-2 -37,-2l-80 1z"/>
 </g>
</svg>
