<?xml version="1.0" encoding="UTF-8"?>
<!DOCTYPE svg PUBLIC "-//W3C//DTD SVG 1.1//EN" "http://www.w3.org/Graphics/SVG/1.1/DTD/svg11.dtd">
<!-- Creator: CorelDRAW X7 -->
<svg xmlns="http://www.w3.org/2000/svg" xml:space="preserve" width="33.4484mm" height="38.2529mm" version="1.1" style="shape-rendering:geometricPrecision; text-rendering:geometricPrecision; image-rendering:optimizeQuality; fill-rule:evenodd; clip-rule:evenodd"
viewBox="0 0 632 722"
 xmlns:xlink="http://www.w3.org/1999/xlink">
 <defs>
  <style type="text/css">
   <![CDATA[
    .fil0 {fill:black}
    .fil1 {fill:#CC9933}
    .fil2 {fill:white}
   ]]>
  </style>
 </defs>
 <g id="Capa_x0020_1">
  <metadata id="CorelCorpID_0Corel-Layer"/>
  <path class="fil0" d="M310 140l0 0c153,0 279,128 279,286l0 0c0,157 -126,286 -279,286l0 0c-154,0 -279,-129 -279,-286l0 0c0,-158 125,-286 279,-286z"/>
  <path class="fil1" d="M51 579l-3 -4c-38,-57 -55,-125 -45,-194 6,-42 21,-82 46,-117l4 -6c-2,-9 -5,-23 0,-31l1 -1 1 -1c2,-1 4,-2 6,-3 -22,-35 -23,-83 -16,-123 3,-19 9,-38 19,-55 9,-14 22,-31 37,-39 5,-3 12,-3 17,1 6,4 7,12 4,18 -1,1 -2,3 -2,4 -3,4 -6,8 -9,12 -4,5 -7,10 -9,16 -6,13 -10,25 -12,39 0,5 -1,9 -1,14 0,7 0,14 1,20 0,4 0,8 1,12 0,0 0,0 0,0 2,-2 4,-5 5,-7 1,-1 2,-3 2,-4 2,-3 3,-6 4,-9 3,-5 9,-9 15,-9 7,0 13,5 14,12 1,4 1,8 1,12 -1,9 -6,17 -10,24 -2,2 -4,4 -5,6 2,2 4,4 5,7 0,1 1,3 1,4 0,1 0,2 0,3l-1 6c0,0 0,1 0,2 -1,1 -1,3 -1,4 42,-30 92,-48 144,-54 1,-4 2,-8 5,-12 3,-6 10,-9 17,-7 6,2 11,8 12,14 0,1 0,2 0,2 5,0 10,0 15,1 1,-5 3,-9 4,-13 2,-6 4,-11 5,-17 3,-15 4,-31 3,-47 0,-7 -1,-14 -3,-21 -1,-5 -3,-10 -4,-16 -1,-1 -1,-3 -1,-4 -1,-7 3,-14 9,-17 6,-2 13,-1 18,4 12,14 19,37 22,55 4,22 3,44 -1,66 -1,5 -2,10 -3,15 104,19 195,88 235,187 15,38 21,78 19,119l-1 8c0,0 0,0 0,1 2,4 3,8 3,12 2,11 0,15 -1,24 0,0 0,1 0,1 7,3 12,9 13,16 2,9 -2,18 -7,25 -4,6 -11,13 -17,17 -6,3 -14,5 -21,5l0 1c-3,5 -5,10 -8,14l15 2 -22 9 -1 2 -3 -1 -10 5c-12,4 -47,1 -60,-1 -8,-1 -16,-2 -23,-4l13 15 -47 -22c-1,0 -3,0 -4,0 -4,0 -7,0 -11,0 -119,3 -227,23 -374,3zm14 -65c3,-12 6,-20 13,-30 0,-2 1,-3 1,-4l26 -53c1,-6 1,-12 0,-18 -5,0 -10,1 -15,1 -9,0 -17,-2 -25,-6 -6,-4 -8,-7 -11,-13 0,0 0,0 0,-1 0,0 -1,0 -1,0 -2,-1 -4,-2 -5,-3 -6,43 0,87 17,127zm-2 -184c0,0 0,0 1,0 4,-4 12,-11 18,-17 -3,-2 -6,-5 -8,-7 -4,8 -8,16 -11,24zm79 -104c9,5 18,10 23,20 1,3 3,5 4,8 5,0 13,0 17,-1 1,0 1,-1 2,-1 8,-9 20,-12 31,-15 8,-2 16,-4 22,-9 7,-7 11,-13 13,-23 1,-2 1,-4 1,-6 0,-1 0,-1 0,-2l2 -6c0,-1 1,-2 1,-3 1,-1 1,-3 2,-4 3,-3 6,-5 9,-6 0,-1 -1,-2 -1,-4 -46,6 -89,24 -126,52zm211 -50c-9,26 -22,51 -41,70 5,1 9,2 12,6 5,5 4,12 1,18 -2,7 -7,14 -11,21 -11,17 -21,34 -39,44 -7,4 -14,6 -22,6 -2,0 -5,0 -7,0 -1,0 -2,0 -2,0 -6,5 -1,7 3,9l14 6c9,4 22,16 24,27 5,-6 10,-10 17,-16 4,-4 -8,-4 -8,-9 0,-5 13,-11 17,-13 0,0 0,0 0,0l-1 -2 9 -5c3,-1 6,-3 10,-4 1,0 2,-1 3,-1 10,-9 25,-21 49,-22l12 -10c7,-4 25,-4 37,-3l-3 -3 27 2c8,0 19,4 27,7 6,2 11,5 17,8 7,1 16,9 22,13 3,2 5,4 8,7 1,-1 2,-2 3,-3 4,-4 9,-7 14,-10 1,0 1,-1 2,-1 -38,-76 -111,-128 -194,-142zm186 373c-2,0 -3,0 -4,0 -15,0 -22,3 -34,9l-2 1c2,1 5,2 8,3 7,2 14,3 21,4l1 -2c4,-5 7,-10 10,-15z"/>
  <path class="fil1" d="M440 568c-113,3 -218,20 -347,11 52,61 132,100 220,100 88,0 166,-38 219,-97 -4,0 -7,0 -10,-1 -9,-1 -18,-3 -26,-5l15 17 -53 -25c-2,0 -4,0 -5,0l-13 0z"/>
  <path class="fil1" d="M313 701c-97,0 -183,-48 -234,-119 -9,-1 -19,-2 -28,-4l-3 -4c52,89 152,148 265,148 111,0 209,-57 262,-142l-4 1 -1 2 -3 0 -10 4c-4,2 -9,2 -16,3 -51,67 -134,111 -228,111z"/>
  <path class="fil0" d="M315 146c-7,0 -13,-1 -20,0 0,1 0,3 0,5 0,2 0,4 1,6 0,1 0,3 1,5 4,0 8,0 12,0 1,-3 2,-6 3,-9 1,-2 2,-5 3,-7zm288 317c1,2 1,4 1,5 1,4 1,6 0,12 -1,2 -1,5 -1,7 -5,-9 -10,-16 -16,-24 -3,-6 -12,-14 -19,-26 -13,-20 -5,-33 -17,-52 3,-6 6,-8 7,-17 1,-9 0,-18 3,-27 3,-9 15,-15 12,-19 -2,-3 -10,0 -17,3 -3,1 -4,2 -6,3 -5,2 -9,5 -12,8 -2,2 -4,3 -5,5 -2,2 -3,4 -5,6 -4,-5 -9,-10 -14,-14 -3,-3 -14,-11 -18,-11l-2 0c-5,-3 -11,-6 -17,-9 -6,-2 -17,-6 -24,-6 4,4 15,7 19,13 -15,-5 -17,-8 -36,-11 -8,-1 -33,-2 -38,1 12,2 23,4 34,9 15,6 6,2 16,5 5,1 11,3 16,4 -6,-4 -22,-11 -30,-13 11,2 22,4 32,9 5,2 9,4 14,6 5,3 8,5 12,8 -2,-7 -7,-9 -9,-14 6,1 21,14 25,20 2,2 3,2 4,4 3,3 4,8 7,10 -1,-10 -5,-12 -8,-20 2,2 4,5 6,7 3,2 5,4 7,7 2,4 7,11 7,18 -3,-2 -3,-6 -5,-8 -2,-1 -1,1 -1,0 0,-1 -1,-1 -1,-1l4 13c2,1 1,-1 2,0 3,1 5,5 7,7 0,-5 -2,-12 -3,-17 -2,-8 -3,-7 2,-15 5,-8 15,-15 23,-19 -1,2 -4,5 -6,8 -5,10 -4,27 -11,33 -2,-2 -2,-5 -4,-8 -2,17 3,20 9,29 8,11 9,16 7,30 -2,-2 -1,-6 -3,-9 -1,7 2,13 5,17l1 -5c2,8 4,12 8,20 3,7 8,10 13,16 4,6 8,11 12,17 2,3 4,5 6,8 2,3 3,7 5,9 -7,1 -13,-1 -18,5l-2 3c-1,0 -1,0 -1,0l2 0c6,-3 13,-6 20,-2 -3,2 -7,3 -8,3 -5,4 -9,7 -2,8 5,-3 10,-4 12,-5 6,0 12,1 12,6 0,6 -4,10 -6,13l0 -1c0,-1 0,-1 0,-1 0,0 0,-1 0,-1 0,-2 0,-2 0,-3 -3,0 -6,2 -7,5 -3,7 1,5 4,3 -7,12 -12,9 -18,10 -4,1 -17,4 -16,-8 0,-7 9,-14 17,-18 -5,0 -7,0 -12,3 -9,6 -7,8 -11,13 -2,-6 2,-10 4,-14 -4,2 -7,7 -9,10 -3,-1 -7,-4 -10,-6 -5,-4 -4,-2 -10,-3 1,-3 4,-4 4,-6 0,-2 -2,-4 -2,-8l-2 3c-1,1 0,1 -1,2 -4,0 -6,-4 -7,-6 -2,-2 -2,-4 -2,-7l-1 -2c0,0 0,0 0,0l-1 4c-2,-6 -1,-13 1,-20 1,-3 2,-6 3,-8l4 -6c1,-1 1,0 2,-1 -3,13 1,22 6,31 6,10 2,16 3,19 2,-3 3,-4 4,-8 1,-7 -3,-14 -6,-20 -6,-15 -1,-23 -3,-30 -6,-1 -12,9 -15,14 -4,7 -6,15 -7,24 -6,3 -6,6 -15,8 -8,3 -17,0 -20,1 8,7 26,5 28,6 -5,4 -11,2 -15,4 5,4 21,4 25,-1 3,3 5,6 10,7 4,1 10,0 12,3 3,2 5,6 8,7 2,2 3,2 5,4 2,1 3,2 3,4 -8,-1 -10,-3 -17,-6 -3,-2 -6,-3 -8,-4 -4,-3 -6,-5 -8,-3 2,1 3,2 5,4 -9,-1 -14,-2 -22,-1 -7,1 -13,4 -20,5 2,-2 1,-1 2,-2 1,0 2,-1 2,-1 3,-2 10,-4 12,-5 -4,-1 -13,1 -17,1 -8,2 -9,4 -14,7 3,-10 9,-8 12,-13 -6,1 -16,3 -20,6 -6,3 -8,6 -11,12l-2 2c-1,-15 9,-19 12,-23 -6,0 -13,5 -16,9 -7,7 -5,12 -6,20 -2,-9 -6,-15 1,-27 -3,1 -2,1 -5,4 -6,7 -5,10 -6,20 0,0 0,0 0,0 -1,-1 0,0 -1,-1 0,-1 -1,-1 -1,-2 0,-1 0,-2 0,-3 -8,-27 7,-38 10,-44 -2,1 -3,2 -5,3 -8,5 -16,14 -17,24 -1,5 0,11 -1,13 0,0 0,0 0,0l-1 1c0,-4 -2,-7 -2,-14 -1,-7 1,-10 3,-16l-2 1c-4,4 -6,10 -6,16 -1,9 1,12 3,18 -7,-7 -13,-18 -10,-34 3,-20 15,-25 17,-31 -2,2 -6,4 -9,6 -3,2 -5,4 -8,7 -9,9 -10,18 -12,20 0,-11 1,-13 5,-23 -4,2 -8,8 -10,14 -2,7 -1,12 0,19 -6,-10 -7,-26 0,-38 5,-9 11,-14 18,-19 2,-2 5,-3 6,-6 -5,1 -17,8 -21,10 -14,10 -10,11 -16,17 2,-6 6,-14 10,-18 3,-4 6,-6 10,-9 5,-3 33,-19 34,-21l-8 3c-9,3 -19,6 -27,10 -8,4 -9,5 -15,11 -4,4 -9,8 -12,14 3,-2 10,-10 15,-10 -1,3 -6,7 -9,11 -16,19 -5,39 -5,44 -1,-1 0,0 -1,-1l-3 -4c-1,-2 -2,-4 -3,-6 -2,-4 -3,-7 -4,-12 -3,-10 -2,-21 2,-32 -3,3 -8,14 -9,20l0 11c-3,-6 -3,-17 -2,-25 2,-12 5,-15 8,-24 -9,5 -26,42 -4,69 10,14 24,23 39,32 2,1 14,7 16,6 -1,-1 -3,-2 -4,-4 -3,-2 -4,-2 -4,-4l0 0c0,0 0,0 1,0 3,1 6,5 9,7 3,3 6,5 10,7 23,15 50,22 78,26 11,2 45,5 54,1 -21,-2 -25,0 -49,-6 -18,-6 -23,-8 -37,-19l2 -1c2,-1 2,-3 2,-6 2,3 3,5 7,7 1,0 9,3 10,1 0,0 1,0 1,0 0,0 0,0 0,-1l1 -1c1,-3 4,-6 7,-6 -1,1 -2,2 -1,3 13,-6 21,-11 39,-10 8,0 16,2 25,3 3,0 8,-1 11,0 4,3 5,4 11,4 6,0 15,-2 20,-4 9,-5 32,-30 11,-40 -3,-2 -3,-5 -6,-7 2,-11 4,-14 2,-26 0,-4 -1,-7 -2,-10 -1,-2 -2,-6 -4,-7 -5,-2 -2,11 -8,19 3,0 5,1 7,-5 0,-1 0,-6 1,-3zm-159 103c-34,-16 -33,-4 -60,-11 -19,-5 -37,-17 -49,-31 5,4 2,8 28,30 24,18 78,9 81,12zm-73 -233c4,-1 7,-2 11,-3 1,0 10,-2 11,-2 -3,-3 -9,-1 -13,-1l10 -3c4,0 8,0 12,0 0,-3 0,-6 2,-7 -6,-2 -23,-1 -29,0 -25,5 -37,25 -66,36 -7,3 30,-12 62,-20zm216 189c-2,0 -4,2 -5,4 -1,2 -2,3 -2,5 0,0 0,1 0,1 1,0 5,0 7,0l0 -2c6,-2 12,-8 12,-11 0,-3 -4,1 -8,3l0 -2 0 -1c-1,1 -2,2 -4,3zm-312 -136c-11,4 -19,-10 -18,-21 6,3 18,15 18,21zm164 45c-1,-2 2,-4 4,-4l2 -2c1,-1 4,-1 5,-1 -2,2 -2,1 -6,4l-5 3zm-108 21c0,-3 1,-5 3,-8 0,0 1,-1 1,-1 1,-2 -1,0 1,-1 0,3 -1,5 -3,8 -1,3 0,2 -2,2zm-11 2c-1,-2 0,-5 1,-7 1,-3 1,-4 4,-5 -1,5 -3,11 -5,12zm47 -30c1,-7 11,-11 16,-13l3 -1c-1,1 0,0 -1,1l-1 1c-2,1 -4,2 -8,5l-7 5c-1,1 0,1 -2,2zm129 -46l-1 0c-5,-7 -6,-8 -8,-17 0,0 0,0 0,-1 1,2 0,0 2,2 0,1 1,1 1,2 3,4 6,9 6,14zm61 129c2,-14 -5,-12 -2,-19 6,3 7,16 2,19zm-156 -140c0,2 1,1 -7,3 -2,1 -6,1 -9,1 -5,1 -16,3 -16,3 4,-2 8,-5 14,-7 4,-1 14,-4 18,0zm-104 76c0,-8 3,-15 9,-19 2,-2 4,-2 5,-3 4,5 -8,21 -14,22zm227 -19l0 1c-2,1 -6,-12 -12,-17 -8,-5 -14,-3 -22,-1 4,-6 15,-10 23,-4 7,5 7,13 10,19l1 2zm-116 3c-9,8 -28,15 -33,21 0,-2 4,-8 5,-9 3,-4 5,-5 8,-7 2,-1 19,-7 20,-5zm-93 -16c5,-14 27,-24 36,-26 -1,1 -2,2 -4,3 -2,1 -3,2 -5,3 -3,3 -5,5 -8,8 -5,5 -11,11 -19,12zm17 18l0 -1c-1,-1 12,-18 20,-24 4,-2 16,-7 21,-9 3,-1 5,-2 8,-3 -6,4 -18,9 -25,17 -5,6 -7,5 -12,10l-12 9c0,0 0,0 0,1zm122 66c4,-8 18,-12 26,-14 8,-1 15,1 25,-2 3,-1 4,-3 7,-3 -1,2 -10,7 -12,8 -16,7 -19,3 -32,5 -9,2 -10,5 -14,6zm3 -18c4,-6 20,-9 28,-9 12,-1 20,-1 29,-7 -4,4 -17,12 -24,14 -7,1 -15,-1 -25,0 -3,1 -6,2 -8,2zm23 -38c1,1 -9,7 -11,8 -12,4 -24,1 -37,7 -2,1 -5,3 -6,3 2,-1 7,-10 23,-14 9,-3 23,1 31,-4l0 0zm-45 36c3,-8 16,-17 25,-19 5,-1 12,-1 18,-1 7,-1 11,-2 17,-3 -4,6 -23,10 -30,11 -6,0 -11,1 -16,3 -2,1 -5,3 -7,4l-5 3c0,1 0,1 -1,1 -1,1 1,0 -1,1zm88 -41c-4,-1 -4,-1 -7,-3 -2,-1 -4,-2 -6,-3 0,0 0,0 1,0 0,-1 -1,-3 -3,-4 -2,-1 -4,-1 -4,0 0,1 0,1 0,2 0,-1 1,-1 1,-1 1,0 1,0 2,1 0,0 0,1 -1,2l0 0 0 0c1,0 1,0 2,0 -8,0 -9,-2 -12,-7 1,8 6,7 10,10 -11,1 -13,-7 -15,-11 -1,-2 -2,-3 -4,-5 8,1 5,1 12,0 10,-3 13,4 17,10l7 9zm-52 -58c-2,-1 -2,-2 -4,-2 2,3 3,2 4,10l3 -2c0,0 0,0 0,0 -1,7 0,12 -3,12 -1,-5 2,-7 -1,-12 -1,-2 -6,-6 -8,-7 8,13 3,12 5,19 -5,-1 -12,-4 -15,-7 -2,-2 -6,-9 -6,-14l1 1c2,2 2,3 5,4 -2,-6 -4,-9 -3,-18l3 0c0,-2 -1,-5 -2,-7 -1,-4 -2,-2 -3,-6 6,4 10,5 16,11 3,3 4,4 6,8 1,2 3,6 2,10zm-67 -38c-5,0 -10,0 -15,1 -2,1 -2,2 -5,3l-20 6c-2,1 -10,5 -12,5 13,-3 29,-5 44,-3 -1,1 0,0 -2,1 0,0 -2,0 -2,0 -2,1 -3,1 -5,1 -18,3 -38,9 -55,17 -15,7 -26,14 -39,25l-12 11c2,-3 4,-6 6,-8 8,-10 13,-15 22,-22 5,-5 10,-8 16,-12 1,-1 2,-1 4,-2 2,-2 2,-2 4,-3 3,-1 7,-3 10,-4l-1 -2c3,-2 5,-3 8,-4 11,-5 19,-6 29,-10 -6,-1 -11,1 -16,1 3,-2 14,-5 19,-6 4,-1 8,-1 12,-1 6,1 10,0 10,6zm83 42c-2,-2 -3,-7 -4,-9 -18,-38 -41,-29 -64,-40 1,4 10,9 14,11 0,0 -1,0 -1,0 0,1 0,-1 -3,1 -3,1 1,0 -1,0 -1,-1 -4,-4 -7,-5 2,8 3,6 4,20 -2,-2 -3,-6 -3,-8l-2 -3c-1,7 1,18 3,25l2 6c1,1 0,-1 1,1 -1,-1 0,0 -1,-1l-3 -3c-1,-1 -1,-3 -2,-5 0,6 2,8 4,11 5,8 1,2 6,8 -3,0 -5,-2 -7,-4 1,4 8,12 12,15 7,4 16,6 23,5 0,0 -1,0 -1,0 0,1 -2,2 -3,2 -9,4 -17,3 -26,-2 -5,-2 -5,-3 -7,-6 2,1 4,4 11,4 -4,-2 -7,-3 -10,-6 -9,-9 -11,-20 -10,-34 0,-10 2,-20 0,-29 -1,-3 -6,-16 1,-15 1,0 3,2 5,3 20,12 47,6 64,34 2,5 8,16 5,24zm-189 38c0,2 -3,3 -3,-1 0,0 1,0 1,0 3,1 1,0 2,1zm-19 -198c1,-9 0,-17 -1,-27 0,-2 -1,-4 -4,-5 -2,0 -4,0 -6,2 0,1 -1,1 -1,2 0,0 0,1 0,1l-2 6c0,1 0,1 0,1 0,3 0,5 -1,7 -2,12 -7,20 -16,28 -8,7 -17,10 -27,12 -9,2 -19,4 -26,11 -1,2 -2,3 -4,4 -7,2 -25,2 -30,2 -1,-5 -3,-10 -5,-14 -4,-7 -12,-11 -20,-15 -7,-5 -15,-9 -19,-16 -6,-9 -8,-17 -6,-28 0,-2 0,-4 1,-6 0,0 0,0 0,0l1 -6c0,0 0,0 0,-1 0,0 -1,-1 -1,-2 0,-1 -2,-3 -5,-3 -2,1 -4,2 -5,4 -3,7 -6,14 -8,21 -2,-1 -2,-3 -3,-6 0,-7 5,-14 9,-20 4,-6 9,-12 13,-18 4,-6 8,-12 9,-19 0,-3 0,-6 0,-9 -1,-2 -3,-4 -5,-4 -2,0 -5,2 -6,4 -1,2 -2,5 -3,8 -1,2 -2,4 -3,5 -2,3 -5,6 -7,9 -3,2 -5,4 -8,6 -2,2 -4,4 -6,7 -3,-10 -4,-25 -4,-31 -1,-7 -1,-14 -1,-21 0,-5 1,-11 1,-16 2,-14 6,-27 12,-41 3,-6 6,-12 11,-18 2,-4 6,-8 8,-12 1,-1 1,-2 2,-3 1,-2 1,-4 -1,-5 -2,-1 -4,-2 -6,0 -13,7 -26,23 -33,35 -9,16 -15,34 -18,52 -8,43 -6,98 27,131 3,4 7,7 11,10l0 0c-5,-1 -12,-3 -17,-4 -2,-1 -5,-2 -7,-4 -2,-1 -6,-2 -8,-1 -4,6 7,39 9,46 7,20 11,21 26,33 -5,8 -19,20 -26,25 -13,11 -25,8 -21,27 2,11 -1,12 9,17 8,4 3,9 12,14 17,9 26,1 44,5 9,49 -19,73 -20,99 0,25 5,48 17,67 16,25 43,38 45,34 2,-4 -12,-14 -22,-28 -8,-12 -15,-46 -16,-60 -1,-44 13,-66 19,-107 6,1 9,10 11,15 2,3 3,6 4,9 2,4 3,6 6,8l-1 -30c1,-1 3,-1 5,-1 -1,-1 -4,-1 -6,-2l-6 -4c27,0 54,-20 55,-49 -13,25 -21,39 -54,39 -14,1 -33,-3 -46,-1 -7,1 -11,4 -20,3 -6,-1 -13,-6 -14,-9 10,1 21,1 30,0 5,-1 8,-3 11,-5 6,-2 7,-1 14,-2 -2,-2 -9,-4 -11,-6 -5,6 -16,13 -22,4 -2,4 -7,7 -13,5 -4,-1 -7,-4 -9,-7l-8 -2 0 0c2,2 2,4 3,7 -5,1 -7,-3 -8,-6l3 -4 10 3 0 0 0 0 0 0 0 0c3,1 6,2 10,2 0,0 0,-1 0,-1l-5 -4 8 -1c2,-4 2,-7 -2,-9 -5,-2 -12,5 -20,4 -5,-1 -6,-2 -7,-5 0,-1 1,-1 1,-1l2 -1c4,-1 5,-1 9,-1 19,4 15,-3 27,15 4,-4 8,-7 -1,-12 0,-1 1,2 -2,0 -2,-1 -3,-2 -5,-4 -4,-2 -8,-3 -12,-5 9,-8 9,-6 18,-18 8,-9 11,-10 14,-23 2,-10 5,-10 10,-15 3,-2 6,-5 7,-9 -3,0 -15,9 -18,13 -2,1 -2,2 -4,4 0,1 -1,2 -1,3l-2 2c-9,-5 -16,-13 -18,-26 -3,-12 -8,-22 -10,-34 23,8 31,6 44,23 6,8 3,13 10,14 1,-3 2,-5 3,-8 0,0 0,0 0,1l3 -18c-4,-4 -11,-8 -15,-11 -9,-6 -18,-12 -25,-20 -31,-31 -33,-84 -26,-126 3,-17 9,-34 18,-49 5,-9 13,-20 22,-28 -2,3 -3,5 -5,7 -4,6 -8,12 -11,19 -6,14 -10,28 -12,43 -3,15 -2,67 7,78 0,1 1,1 2,1 0,0 1,0 1,-1 3,-3 5,-6 8,-9 1,-1 2,-2 3,-3 3,-2 5,-4 8,-7 7,-7 9,-10 12,-16 -3,11 -14,23 -20,32 -6,8 -11,16 -10,25 0,9 5,12 11,17 1,1 1,1 2,1 1,-1 1,-1 1,-2 1,-6 3,-12 5,-18 0,0 0,0 0,0 -2,12 1,21 7,31 5,8 13,13 22,18 6,3 14,7 17,13 1,2 3,7 4,12 -7,1 -23,6 -20,10 -2,5 15,-3 1,7 5,0 7,-1 13,0 11,0 23,-7 34,-5 -1,0 -1,0 -1,0l6 1c0,-5 8,-13 10,-15 5,-6 15,-8 23,-10 11,-2 21,-5 29,-13 10,-9 16,-18 19,-32 0,0 0,0 0,0 0,7 0,14 -2,21 -1,1 0,2 0,3 1,0 2,0 3,0 8,-5 14,-6 18,-16 4,-10 2,-20 -1,-30 -3,-13 -10,-29 -8,-42 0,7 1,12 6,21 2,4 3,7 5,10 1,2 2,3 3,5 1,4 2,8 4,12 0,1 0,1 1,1 1,1 1,1 2,0 14,-9 34,-67 38,-84 3,-17 4,-34 3,-52 0,-8 -1,-16 -3,-24 -1,-3 -2,-6 -3,-9 6,12 10,27 12,37 4,20 3,41 -1,60 -8,49 -31,107 -75,132 -5,3 -10,6 -16,8 -2,1 -5,2 -7,3 -3,1 -7,2 -10,3 -7,2 -19,6 -24,11 -1,1 -3,3 -4,5 0,1 -2,3 -3,4 -3,2 -9,1 -13,-1 -2,-1 -13,-12 -12,-3 0,1 0,2 0,3 1,2 3,5 5,7 7,6 20,8 27,3 1,-1 3,-4 4,-5 1,-1 1,-2 2,-3 -2,4 -5,4 -1,9 3,-2 5,-4 8,-7 7,-5 12,-9 17,-13 9,-3 18,-6 26,-10 8,-1 19,-1 34,0 -3,13 -13,24 -21,33 -9,11 -12,20 -28,24 -10,3 -21,-1 -29,4l6 0c-1,2 -4,3 -7,5 -2,1 -4,3 -6,4 2,4 2,-1 1,7 -1,26 4,49 24,67 7,5 16,14 14,14 -2,0 0,3 -14,-7 -3,-2 -7,-5 -9,-7 -2,-2 -6,-9 -8,-9l-1 1c26,35 28,34 37,26 7,-7 12,-12 11,-13 -24,-14 -60,-67 -36,-82 5,-3 16,3 31,-5 16,-9 25,-26 36,-42 23,-35 8,-27 -10,-29 0,0 -4,0 -10,0 41,-28 62,-84 70,-132 4,-20 5,-42 1,-63 -2,-15 -9,-37 -19,-49 -2,-2 -5,-2 -7,-1 -2,1 -3,3 -3,5 0,2 0,3 1,4 1,5 3,10 4,16 2,7 3,15 3,23 1,17 0,33 -3,49 -1,6 -3,12 -5,18 -3,8 -5,15 -8,23 -3,6 -10,23 -16,33 -2,-4 -3,-7 -5,-10 -2,-3 -3,-5 -5,-9 -2,-4 -3,-8 -4,-12 0,-2 -1,-4 -1,-6 0,-4 0,-7 0,-11 -1,-2 -2,-4 -5,-5 -2,-1 -5,0 -6,2 -2,3 -3,7 -4,10 -1,8 0,16 2,24 2,8 5,16 7,24 1,7 4,17 1,25 -2,3 -3,5 -5,6zm-182 355c0,-30 -10,-23 -15,-44 -4,-14 -1,-32 6,-46 -1,5 -6,5 -14,32 -7,24 24,55 23,58zm79 0c0,-1 -11,-12 -17,-28 -5,-13 18,-30 33,-44 7,-7 13,-17 13,-17 -3,42 -53,35 -29,89zm7 -144c-4,1 -4,-5 -3,-10 6,1 6,7 3,10zm14 -6c-1,-1 -1,0 -3,-4 0,-2 -1,-3 -1,-5 -1,-6 -1,-9 0,-14 7,3 10,19 4,23zm17 -17c-5,-4 -7,-24 -3,-32 4,5 10,25 3,32zm-121 -61l-5 0 2 4c-4,-3 -4,-4 -9,-7l17 -9c6,-3 4,0 8,-1 4,-1 5,-4 10,-5 -2,2 -9,10 -11,11 0,0 -10,-1 -12,7zm100 127c-9,-1 -12,-14 -10,-25 7,1 12,16 10,25zm26 -13c-2,2 -3,3 -6,2 -3,-3 -11,-21 -7,-27 3,2 6,8 8,12 2,3 5,9 5,13zm-27 -141c-7,2 -7,1 -8,1 0,-2 -2,-3 -4,-3 -3,0 -6,1 -6,3 0,1 2,3 5,3 1,0 2,-1 3,-1 -2,3 -3,5 -9,5 -12,-2 -1,-6 -22,1 1,-2 15,-15 18,-17 4,-2 7,-5 13,-1 2,2 2,3 4,5 3,2 4,2 6,4zm0 -14c-14,-4 -12,-15 -40,1 -4,-5 -11,-1 -17,0 -13,3 -11,5 -17,6 3,-10 2,-20 12,-20 0,3 -1,4 -2,7l34 -7c16,-2 23,5 30,13zm104 -35c-4,5 -16,2 -29,22l-8 9c-1,1 0,0 -2,1l-26 7 13 -14c6,-6 3,-11 11,-17 9,-7 29,-10 39,-9l2 1c0,0 0,0 0,0zm-185 17c-13,-25 1,-25 -37,-39 3,9 16,11 22,22 -1,3 -2,2 -3,3 3,2 3,3 5,4 5,4 2,5 13,10zm466 264c-4,7 -8,14 -12,21l-11 -2c-6,0 -11,-1 -16,-1 5,-7 9,-15 13,-22 3,0 6,0 8,1 2,0 7,-1 9,0 4,2 6,3 9,3zm-7 -46l0 -1 0 -1 0 0 0 0 1 -1 0 -1 0 0 0 0 0 -1 1 -1 0 -1 0 0 0 -1 0 0 0 -1 1 -1 0 0 0 0 0 -1 0 -1 0 -1 1 0 0 -1 0 -1 0 0 0 -1 1 0 0 -1 0 0 0 -1 0 -1 0 0 0 0 0 -1 1 -1 0 0 0 -2 0 0 0 0 1 -2 0 0 0 0 0 0 0 -1 0 -1 0 0 0 -1 0 -1 0 0 1 0 0 -1 0 -1 0 0 0 -1 0 -1 0 0c2,3 4,5 6,8 2,3 4,6 6,8 -4,1 -8,2 -12,7l-3 3 0 0c0,0 0,0 0,0l-5 7zm12 -61c3,-36 -2,-71 -14,-103 3,-7 14,-12 12,-21 0,-1 -1,-2 -2,-3 -4,-7 -14,-4 -20,-1 -37,-77 -111,-135 -204,-151 2,-5 3,-10 4,-16 151,27 258,155 249,296 0,0 -1,0 -1,0 -2,-1 -4,-1 -7,-1 -5,3 -6,8 -7,13 -2,-3 -5,-7 -8,-10 0,-1 -1,-2 -2,-3zm-315 -297c-57,6 -109,27 -151,60 1,5 3,9 6,14 1,1 2,3 4,5 39,-33 87,-56 141,-63 -1,-5 -1,-11 0,-16zm-210 122c-23,33 -38,71 -44,113 -10,67 7,132 43,186l16 2c-10,-17 -16,-47 -17,-52l0 0c-17,-42 -24,-87 -17,-134 1,-6 2,-11 3,-17 -1,-5 -1,-11 3,-16 0,0 1,0 1,-1 5,-18 13,-36 22,-53 -2,-3 -3,-6 -4,-10 -2,-6 -4,-12 -6,-18z"/>
  <path class="fil0" d="M158 637c-2,-2 -4,-4 -5,-6 -8,8 -18,12 -29,12 -19,0 -36,-15 -33,-34 2,-9 9,-14 17,-17 -6,-5 -6,-14 -5,-21 3,-13 16,-22 28,-24 21,-4 37,9 40,30 0,3 0,7 0,10 1,0 1,0 2,0 5,0 11,1 16,5 1,-1 1,-2 3,-3 4,-3 8,-3 13,-3 1,0 2,0 3,0 9,-2 18,2 21,11 0,1 0,1 0,1 1,3 1,6 0,10 1,0 2,0 3,0 3,1 5,4 6,8 1,8 -7,18 -15,22 0,0 1,0 1,0 0,0 0,0 1,0l3 -3c6,-4 12,-4 18,-2 0,0 0,0 0,0l3 0c0,0 0,0 0,0 1,0 1,0 1,0 -1,-1 -3,-2 -4,-3 -12,-11 -9,-31 2,-41 7,-6 18,-10 26,-7 0,0 0,0 0,0 -4,-7 -4,-15 0,-21 5,-8 14,-12 22,-14 8,-1 14,0 21,1 6,0 13,-1 19,-1 3,0 6,1 8,4 2,3 2,6 1,9l-7 21c0,0 0,0 0,0 2,0 3,1 4,1 6,-2 12,0 16,4 6,-6 17,-7 24,-4 2,1 4,2 5,3 7,-5 16,-8 25,-4 0,0 1,1 1,1l5 -18c1,-3 3,-6 6,-7 4,-3 7,-3 12,-3 3,0 6,1 8,3 2,3 2,6 1,9l-3 12c1,0 3,0 4,0 2,0 3,0 4,0 4,-1 8,-1 12,1 1,-1 2,-1 4,-1 8,-2 14,-1 19,4 3,-3 8,-6 13,-6 7,0 15,2 19,7 1,2 2,3 3,5 1,0 3,0 4,0 4,0 6,2 8,5 1,2 1,3 1,5 1,8 -9,19 -17,23 -2,2 -3,4 -5,6 -6,4 -13,4 -19,3 -3,-1 -5,-2 -6,-2 -8,5 -16,5 -22,-2 -1,3 -3,5 -7,6 2,0 3,1 5,1 1,1 3,2 4,4 1,0 2,1 3,2 3,4 4,9 4,14 0,6 -2,11 -6,16 -7,10 -22,12 -33,10 -6,-1 -14,-4 -20,-7l-2 -1c0,0 0,0 0,0l-1 -1c-1,0 -2,-1 -3,-1 -1,1 -2,2 -3,3 -8,9 -20,5 -21,-7 -2,-2 -7,-4 -12,-5 0,1 0,1 0,2 1,17 -25,23 -34,10l-1 1c0,0 0,0 0,0 -7,5 -16,7 -24,4 -1,-1 -1,-1 -1,-1 0,0 -1,0 -1,1 -8,3 -17,1 -24,-4 0,0 0,0 0,0l-1 -1c-9,13 -35,7 -34,-10 0,0 0,-1 0,-2 -5,1 -10,3 -12,5 -1,12 -13,16 -21,7 -1,-1 -2,-2 -3,-3 -1,0 -2,1 -3,1l-1 1c0,0 0,0 0,0l-3 1c-5,3 -13,6 -19,7 -11,2 -26,0 -33,-10 -4,-5 -6,-10 -6,-16 0,-5 1,-10 4,-14 1,-1 2,-2 3,-2zm42 2c1,1 1,1 1,1 1,2 2,4 2,6 1,-1 2,-2 3,-3 1,-2 3,-3 4,-4 -2,-1 -4,-3 -5,-5 -1,3 -3,4 -5,5zm123 -5c-2,1 -3,2 -5,2l-7 2c-2,0 -5,0 -7,-2 -2,-1 -4,-4 -4,-6 0,-2 -1,-7 -2,-12 -7,7 -16,14 -26,17 0,0 1,0 1,0 3,0 7,0 10,0 4,0 8,1 13,1 5,1 10,4 13,9 1,0 2,0 3,0 1,0 2,0 3,0 3,-5 8,-8 13,-9 1,0 1,0 1,0 -2,0 -5,-1 -6,-2zm10 2c2,-1 5,-1 8,-1 2,0 3,0 4,0 -2,-1 -5,-3 -7,-5 -1,3 -3,5 -5,6zm20 -1c1,0 2,0 3,0 2,0 3,-1 5,-1 -1,0 -2,-1 -3,-1 -1,0 -2,1 -3,2 -1,0 -1,0 -2,0zm26 -2c4,-1 7,-2 10,-1 -1,-1 -3,-1 -4,-3 -2,2 -4,3 -6,4zm13 0c2,1 3,2 4,2l3 3c1,0 1,0 1,0 7,-3 13,-1 18,5 1,1 1,2 3,3 0,-2 1,-4 2,-6 2,-3 3,-4 6,-6 1,-1 2,-1 4,-2 -1,0 -2,-1 -3,-1 -7,3 -13,3 -18,-2 -6,4 -13,6 -20,4zm52 -4c0,0 1,0 1,0l0 0c1,1 2,1 3,1 -1,-1 -2,-2 -2,-3 -1,1 -1,2 -2,2zm-179 -16c-2,0 -3,-1 -5,-2 1,1 1,1 1,1 1,2 2,2 4,1z"/>
  <path class="fil2" d="M256 644c-2,-1 -5,-1 -8,-1l-4 1c-3,0 -6,1 -9,2l-2 0c-3,2 -8,4 -11,6 -1,0 -2,1 -2,1 -1,0 -3,1 -4,2 -2,1 -5,3 -7,4l-1 0 -3 2c-4,2 -12,5 -16,6 -9,2 -19,1 -25,-6 -2,-3 -4,-6 -4,-11 0,-3 1,-6 3,-8 0,-1 1,-1 1,-1 1,-1 1,-1 2,-2 4,-2 9,-3 13,-3l0 0c4,0 8,1 11,3 1,1 2,2 3,3 2,3 2,6 1,9 -1,1 -1,2 -2,3 -2,2 -5,2 -8,2 -4,0 -7,-2 -7,-5 0,-1 0,-1 0,-1 0,-7 13,-7 14,-1 1,-3 -2,-5 -4,-7 -5,-3 -13,-2 -18,0 -3,1 -5,4 -5,8 0,3 1,6 3,8l1 1c6,5 16,5 23,3 2,0 3,-1 4,-1 7,-3 15,-10 19,-16 4,-5 7,1 9,1 2,0 5,-2 7,-3l4 -3c5,-4 10,0 11,0 1,0 1,0 2,0l3 -1c8,0 10,1 17,3 1,0 5,0 6,0 3,-1 6,-1 9,0 4,0 8,0 12,1 2,0 8,3 8,6 -1,0 -1,0 -1,1 -2,1 -9,0 -12,0 0,1 -1,0 -1,0l-2 1c0,0 -1,0 -1,0 0,0 1,1 2,1l2 2c3,3 9,8 13,8 3,0 4,0 5,-1 5,-3 3,-5 1,-5 -1,0 -1,1 -2,1 -4,3 -7,0 -4,-3 1,-1 4,-2 6,-3 2,0 3,1 4,2 1,-1 2,-2 4,-2 2,1 5,2 6,3 3,3 0,6 -4,3 -1,0 -1,-1 -2,-1 -2,0 -4,2 0,5 2,1 3,1 6,1 4,0 10,-5 13,-8l2 -2c1,0 2,-1 2,-1 0,0 -1,0 -1,0l-2 -1c0,0 -1,1 -1,0 -3,0 -10,1 -12,0 0,-1 0,-1 -1,-1 0,-3 6,-6 8,-6 4,-1 8,-1 12,-1 3,-1 6,-1 9,0 1,0 5,0 6,0 7,-2 9,-3 17,-3l3 1c1,0 1,0 2,0 1,0 6,-4 11,0l4 3c2,1 5,3 7,3 2,0 5,-6 9,-1 4,6 12,13 19,16 1,0 2,1 4,1 7,2 17,2 23,-3l1 -1c2,-2 3,-5 3,-8 0,-4 -2,-7 -5,-8 -5,-2 -13,-3 -18,0 -2,2 -5,4 -4,7 1,-6 14,-6 14,1 0,0 0,0 0,1 0,3 -3,5 -7,5 -3,0 -6,0 -8,-2 -1,-1 -1,-2 -2,-3 -1,-3 -1,-6 1,-9 1,-1 2,-2 3,-3 3,-2 7,-3 11,-3l0 0c4,0 9,1 13,3 1,1 1,1 2,2 0,0 1,0 1,1 2,2 3,5 3,8 0,5 -2,8 -4,11 -6,7 -17,8 -25,6 -4,-1 -12,-4 -16,-6l-3 -2 -1 0c-2,-1 -5,-3 -7,-4 -1,-1 -3,-2 -4,-2 0,0 -1,-1 -2,-1 -3,-2 -8,-4 -11,-6l-2 0c-3,-1 -6,-2 -9,-2l-4 -1c-3,0 -6,0 -8,1 0,0 0,0 0,0 4,0 6,0 8,1 6,1 11,2 15,5 1,1 3,2 5,5 2,2 4,6 2,8 -2,3 -4,2 -4,-2 0,-3 0,-3 -2,-5 -7,-7 -26,-10 -35,-10 -1,0 -7,3 -8,3l1 1c5,2 12,3 13,9 0,8 -14,10 -18,4 0,-1 0,-2 0,-4 0,-2 3,-4 4,-3 2,1 2,3 1,4 0,1 -1,1 -1,2 2,1 5,1 7,0 8,-5 -7,-8 -10,-9 0,-1 -1,-1 -2,-1 -1,1 -4,3 -5,4l-8 6c-4,3 -9,5 -14,3 -2,-1 -4,-2 -5,-3 -1,1 -3,2 -5,3 -5,2 -10,0 -14,-3l-8 -6c-1,-1 -4,-3 -5,-4 -1,0 -2,0 -2,1 -3,1 -18,4 -10,9 2,1 5,1 7,0 0,-1 -1,-1 -1,-2 -1,-1 -1,-3 1,-4 1,-1 4,1 4,3 0,2 0,3 -1,4 -3,6 -17,4 -17,-4 1,-6 8,-7 13,-9l1 -1c-1,0 -7,-3 -8,-3 -9,0 -28,3 -35,10 -2,2 -2,2 -2,5 0,4 -2,5 -4,2 -2,-2 0,-6 2,-8 2,-3 4,-4 5,-5 4,-3 9,-4 15,-5 2,-1 4,-1 8,-1 0,0 0,0 0,0zm-133 -13c10,0 19,-3 25,-11 6,-8 10,-16 12,-24 1,-6 2,-14 2,-20 -6,-35 -45,-24 -50,-6 -1,8 2,18 10,11 -6,-11 7,-24 19,-21 19,3 12,36 4,49 -4,6 -10,13 -19,14l-1 -2 14 -51c-5,0 -9,0 -10,5l-11 45c0,2 -7,-2 -7,-12 0,-4 1,-8 3,-11 -5,2 -12,5 -13,11 -3,11 8,23 22,23zm202 -24c-1,5 -2,7 -1,11 1,3 3,6 6,6 1,-6 5,-24 8,-27 4,-7 9,-3 8,2 -1,5 -5,12 -2,19 1,3 4,6 7,5 5,-2 8,-7 9,-5 2,5 8,5 13,4 10,-3 13,-12 14,-9 4,12 17,11 27,-1 1,-2 2,3 2,3 5,13 14,-1 15,-1 2,1 2,6 6,6 2,-6 5,-23 8,-27 6,-7 9,-2 8,1l-3 16c0,3 1,10 5,10 2,-6 6,-24 9,-28 4,-6 9,-3 8,3 -1,5 -4,14 -2,20 4,8 12,2 15,-3 2,-2 1,4 9,5 14,4 13,-6 15,-7 7,-1 15,-12 15,-15 0,0 -1,0 -1,-1 -1,2 -10,13 -12,11 0,-1 3,-14 -1,-18 -2,-3 -8,-4 -11,-4 -11,0 -14,17 -13,25 0,1 -4,5 -7,4 -3,-2 -2,-4 -1,-6 1,-5 3,-12 2,-17 -3,-6 -6,-6 -12,-5 -5,1 -6,6 -7,4 -4,-6 -9,-4 -14,0l-1 -1 1 -3c-12,1 -9,0 -14,20 -2,7 -1,6 -4,9 -3,2 -7,1 -6,-4l13 -49c-3,0 -8,0 -9,4l-11 41c-3,4 -10,11 -16,11 -5,0 -6,-9 -4,-8 12,4 22,-16 12,-21 -6,-3 -14,0 -18,6 -4,6 -4,15 -4,16 0,0 -6,7 -6,4 1,-13 -15,-14 -10,-21 4,-5 10,1 6,4 8,7 10,-5 3,-8 -5,-2 -14,-1 -16,3 -5,9 5,15 7,18 4,5 -1,12 -6,6 -3,-3 -1,-4 -2,-6l0 0c-2,3 -6,9 -10,7 -2,-1 -2,-4 -1,-6 2,-5 4,-12 3,-17 -2,-5 -6,-6 -10,-5 -3,2 -4,4 -6,4l1 -4c-12,0 -8,0 -14,19zm78 -7c-2,2 -7,3 -7,2 -1,-4 1,-7 4,-9 4,-4 10,1 3,7zm101 2c-1,1 -10,-6 -8,-10 2,-5 7,-7 8,-5 2,2 1,14 0,15zm-5 11c-2,1 -5,-1 -6,-4l1 -6c1,0 2,3 8,5 2,1 -2,5 -3,5zm-220 1c-8,6 -20,10 -27,0 -4,-10 2,-20 12,-22l1 1c-3,4 0,9 4,9 8,-1 6,-10 3,-13 -5,-4 -13,0 -17,4 -7,6 -10,20 -3,27 12,11 30,-2 39,-11l9 -9c0,0 1,0 1,0 4,5 7,18 8,25l7 -1c4,-12 6,-25 10,-37l10 -33c-7,0 -13,1 -20,0 -6,0 -11,-2 -18,0 -29,4 -17,34 2,24 10,-5 9,-16 2,-16 -6,1 -6,9 1,8 2,0 0,4 -5,6 -15,6 -19,-16 -1,-18 5,-1 24,2 25,4 1,2 -19,26 -22,30 0,0 -1,0 -1,0 -5,-3 -17,-5 -17,4 4,-4 14,-2 14,0 -1,3 -14,15 -17,18zm25 -18c0,0 0,0 0,-1l19 -23 1 0 -12 35 -2 0c-1,-3 -3,-8 -6,-11zm-135 18c1,0 2,3 7,5 2,1 -1,5 -2,5 -3,1 -5,-1 -6,-4l1 -6zm-9 4c1,6 3,9 8,10 14,3 14,-6 16,-7 3,-1 6,-4 6,-1 0,3 2,8 6,8 1,-6 5,-23 8,-27 5,-6 9,-3 8,3 -1,5 -4,12 -2,18 2,3 4,7 8,5 3,-1 11,-8 11,-13 -4,3 -7,8 -11,6 -2,-1 -1,-4 -1,-6 2,-4 4,-12 3,-16 -2,-5 -6,-7 -10,-5 -3,1 -4,4 -5,3l0 -3c-11,0 -8,-1 -14,20 0,1 -6,5 -5,2 1,-4 2,-14 -1,-17 -3,-3 -8,-5 -12,-4 -11,0 -13,17 -13,24zm19 -20c2,2 1,14 0,15 -1,0 -11,-6 -8,-10 2,-5 6,-7 8,-5zm169 48l-4 2c0,0 0,0 -2,-1 -2,0 -5,-1 -7,-1 0,0 -1,0 -1,0 1,0 2,0 3,0l6 0c0,0 0,-1 1,-1l4 1zm-72 0l3 2c1,0 1,0 3,-1 2,0 5,-1 7,-1 0,0 0,0 1,0 -1,0 -2,0 -3,0l-6 0c0,0 -1,-1 -1,-1l-4 1z"/>
 </g>
</svg>
